<svg xmlns="http://www.w3.org/2000/svg" width="566.615" height="137.063"><defs><clipPath id="a"><path data-name="Rectangle 44" fill="none" d="M0 0h566.615v137.063H0z"/></clipPath></defs><g data-name="Group 82"><g data-name="Group 70" clip-path="url(#a)" fill="#fff"><path data-name="Path 64" d="M89.383 82.187a3.429 3.429 0 0 1-2.622.6c-4.193 0-8.4-.035-12.58-.018-1.43 0-2.834.124-4.246.221a1.837 1.837 0 0 1-2.013-1.368c-1.845-4.7-3.743-9.375-5.632-14.063-.185-.486-.371-.971-.539-1.465-.521-1.545-.521-1.571-2.207-1.58q-13.944-.015-27.878.009c-3.39.009-3.928.521-5.156 3.681-1.721 4.414-3.54 8.793-5.332 13.18a2.418 2.418 0 0 1-2.6 1.571c-5.244-.044-10.488-.053-15.731-.079a7.113 7.113 0 0 1-2.847-.3c1.81-4.14 3.584-8.175 5.332-12.218q8.5-19.651 16.976-39.311c2.9-6.7 5.826-13.374 8.722-20.075 1.263-2.913 2.481-5.844 3.708-8.773C35.524.281 35.93.017 38.04.017q6.846.013 13.683-.018c2.092 0 2.216.079 3.037 1.977q4.052 9.322 8.086 18.636c2.816 6.55 5.606 13.118 8.44 19.678 1.518 3.531 3.125 7.036 4.652 10.576q6.303 14.566 12.545 29.133c.3.715.583 1.43.9 2.189M54.018 47.799a19.982 19.982 0 0 0-.6-2.039c-2.825-6.374-5.721-12.73-7.972-19.351-.168-.512-.256-1.112-1.042-1.368-.23.521-.424.98-.636 1.448-2.489 5.9-4.961 11.8-7.46 17.709-.4.936-1.042 1.8-.7 2.913.018.079-.177.238-.406.5 6.294.715 12.368.318 18.812.185"/><path data-name="Path 65" d="M399.519 58.352h-19.368c-2.013.009-2.128.177-1.315 2.057a12.876 12.876 0 0 0 7.142 7.115c1.209.494 2.481.839 3.725 1.245a8.945 8.945 0 0 0 4.961-.1q2.291-.556 4.555-1.209a16.481 16.481 0 0 0 6.427-4.105c1.624-1.483 1.792-1.563 3.487-.088 2.887 2.489 5.738 5.032 8.59 7.566 1.095.971 1.077 1.51.159 2.648-4.15 5.14-9.658 8.026-15.979 9.619a36.978 36.978 0 0 1-10.885 1.395c-9.375-.459-17.638-3.7-24.215-10.444a26.817 26.817 0 0 1-7.133-13.012 40.994 40.994 0 0 1-1.439-10.8 31.328 31.328 0 0 1 4.617-15.687 35.161 35.161 0 0 1 9.093-10.038 29.5 29.5 0 0 1 11.741-5.067 32.158 32.158 0 0 1 7.945-.927 31.132 31.132 0 0 1 17.515 6.241 29 29 0 0 1 11.97 24.145c.009 2.445.009 4.9-.009 7.345-.009 1.624-.406 2-2.057 2h-19.527Zm2.746-12.752a4.37 4.37 0 0 0-.009-1.033 14.614 14.614 0 0 0-3.831-6.886c-4.767-4.538-11.123-4.6-15.74-.565a18.359 18.359 0 0 0-4.37 5.835c-1.165 2.339-.83 2.957 1.819 2.984 6.021.053 12.041.044 18.071.009 1.342-.009 2.684-.221 4.061-.344"/><path data-name="Path 66" d="M290.908 58.352h-19.527c-2.2.009-2.489.5-1.324 2.357a17.254 17.254 0 0 0 5.438 5.765c3.354 2.059 6.956 3.143 10.938 2.145 1.068-.265 2.145-.512 3.2-.8a12.2 12.2 0 0 0 4.714-2.4c1.042-.865 2.216-1.58 3.311-2.392 1.139-.839 1.324-.883 2.445.035 1.9 1.563 3.778 3.152 5.606 4.794a33.113 33.113 0 0 1 3.072 3.125c1.271 1.51 1.139 2.1-.3 3.4a39.855 39.855 0 0 1-18.221 9.384 32.067 32.067 0 0 1-14.646-.265 61.457 61.457 0 0 1-4.538-1.28 30.937 30.937 0 0 1-14.773-10.458 27.558 27.558 0 0 1-5.544-11.441 44.162 44.162 0 0 1-.706-14.443 27.275 27.275 0 0 1 7.803-16.345c3.116-3.222 6.409-6.144 10.567-8a35.043 35.043 0 0 1 7.822-2.3c11.291-2.125 20.64 1.547 28.488 9.528a22.953 22.953 0 0 1 4.405 6.621c1.465 3.222 3.037 6.409 3.39 10 .106 1.139.221 2.278.23 3.425.018 2.5-.009 5-.035 7.495-.026 1.563-.477 1.96-2.128 1.96q-9.852.013-19.686.009v.079m2.578-12.73a3.017 3.017 0 0 0-.309-2.648 16.7 16.7 0 0 0-6.418-7.486 9.759 9.759 0 0 0-3.355-1.183c-3.593-.618-6.683.591-9.455 2.825a16.657 16.657 0 0 0-4.67 6.912c-.609 1.457-.371 1.933 1.192 1.933q9.826.026 19.642-.026a32.785 32.785 0 0 0 3.372-.327"/><path data-name="Path 67" d="M465.349 1.332a14.769 14.769 0 0 1 2.349-.362q13.626.04 27.243.132a51.718 51.718 0 0 1 19.915 4.026 43.726 43.726 0 0 1 9.623 5.879 34.535 34.535 0 0 1 11.423 15c2.057 5.27 3.54 10.7 3.328 16.42a43.823 43.823 0 0 1-3.074 15.051 36.978 36.978 0 0 1-7.3 11.75 29.712 29.712 0 0 1-4.308 3.849 52.742 52.742 0 0 1-19 8.749 38.494 38.494 0 0 1-7.8.786c-7.239.1-14.487.009-21.734.026-2.834.009-5.668.115-8.5.177-.256 0-.521.035-.786.018-1.4-.071-1.589-.282-1.58-1.686q.093-36.561.194-73.122c.009-2.181.009-4.361.009-6.692m10.627 40.527h-.022c0 9.525.018 19.06-.009 28.585-.009 2.957.018 3.063 2.984 3.107 3.461.053 6.93-.035 10.391.132a45.175 45.175 0 0 0 19.364-3.255 31.005 31.005 0 0 0 15.316-13.339 29.8 29.8 0 0 0 3.717-13.43 29.458 29.458 0 0 0-4.193-17.338c-4.811-8.148-12.05-13-21.32-14.9a77.5 77.5 0 0 0-13.922-1.28c-3.514-.071-7.027-.035-10.541-.009-1.483.018-1.774.371-1.774 1.748q.013 4.913.009 9.834V41.86"/><path data-name="Path 68" d="M85.861 50.089c.3-3.725.486-7.442 2.092-10.858a48.531 48.531 0 0 1 3.469-5.924c4.326-6.559 10.585-10.576 17.921-13.048a31.25 31.25 0 0 1 9.269-1.642 39.184 39.184 0 0 1 6.886.5 32.382 32.382 0 0 1 14.7 5.959c1.3.98 2.631 1.916 3.84 2.984 1.536 1.351 1.563 2.145.194 3.7-.927 1.051-2 2-2.94 3.037-1.836 2-3.655 4.026-5.429 6.082-1.315 1.51-1.563 1.563-3.2.362-1.6-1.174-3.24-2.3-4.82-3.5-6.021-4.511-15.846-2.7-20.145 4.432a21.647 21.647 0 0 0-2.763 7.272 14.5 14.5 0 0 0 .5 5.856 15.824 15.824 0 0 0 6.868 10.1c4.414 2.922 9.137 2.869 13.842 1.024a34.394 34.394 0 0 0 6.2-3.655c2.3-1.536 2.772-1.58 4.705.3 1.721 1.686 3.443 3.355 5.094 5.1a33.9 33.9 0 0 1 2.763 3.4 1.958 1.958 0 0 1-.344 2.913c-5.95 5.129-12.721 8.651-20.6 9.684a33.457 33.457 0 0 1-21.5-4.3 36.33 36.33 0 0 1-5.977-4.026 30.332 30.332 0 0 1-9.817-17.382c-.53-2.737-.556-5.579-.812-8.369"/><path data-name="Path 69" d="M193.262 42.427c-1.66-1.386-3.055-2.569-4.458-3.734a14.4 14.4 0 0 0-21.487 3.4 16.973 16.973 0 0 0 .724 19.766 13.8 13.8 0 0 0 11.167 5.754c5.058.2 9-2.03 12.677-5.032 1.616-1.324 2.445-1.43 3.928-.044 2.587 2.428 5.182 4.864 7.663 7.407 2.189 2.225 2.1 3.249-.327 5.235-4.785 3.928-10 7.089-16.182 8.307a37.134 37.134 0 0 1-23.491-2.781 34.08 34.08 0 0 1-11.759-9.481c-3.787-4.582-5.473-9.94-6.233-15.731a30.788 30.788 0 0 1 2.022-15.166 32.026 32.026 0 0 1 17.387-18.611 41.008 41.008 0 0 1 12.929-3.143 32.544 32.544 0 0 1 11.644 1.466 30.968 30.968 0 0 1 12.792 7.1 11.925 11.925 0 0 1 1.677 1.854 1.636 1.636 0 0 1-.141 2.4c-2.233 2.489-4.476 4.97-6.771 7.407-1.174 1.236-2.454 2.375-3.761 3.628"/><path data-name="Path 70" d="M321.744 52.084c0-4.423.027-8.854-.009-13.277-.026-3-.071-3.01-3.125-2.94-.892.026-1.783.141-2.675.115-1.5-.035-2-.521-2-1.986q.026-6.4.132-12.8c.026-1.616.4-1.9 2.013-1.8.574.035 1.148.168 1.721.2a16.207 16.207 0 0 0 2.357.062c1.289-.106 1.563-.371 1.554-1.651 0-2.083-.124-4.158-.177-6.241-.053-1.924-.124-3.858-.106-5.782.024-1.65.249-1.853 1.957-1.888 1.992-.036 3.992-.018 5.985-.018 3.2 0 6.409-.009 9.6.009 1.545.009 1.73.159 1.739 1.7.018 3.443-.018 6.877-.026 10.311 0 .733-.018 1.457.035 2.189.071 1.006.318 1.254 1.315 1.395a6.717 6.717 0 0 0 .945.026c3.672-.062 7.345-.115 11.008-.194 1.307-.026 1.854.38 1.845 1.721q-.013 6.409-.115 12.809c-.026 1.421-.512 1.819-1.951 1.8q-5.27-.053-10.549-.1c-.371-.009-.733-.018-1.1 0-1.36.071-1.651.318-1.66 1.695-.026 3.231-.026 6.462.026 9.684.053 3.911.132 7.813.291 11.715a28.3 28.3 0 0 0 .574 4.635 4.208 4.208 0 0 0 4.2 3.54c2.754.185 5.27-.759 7.76-1.739 2.083-.821 2.092-.821 2.657 1.377.706 2.719 1.527 5.4 2.278 8.113.265.953.468 1.916.689 2.878a2 2 0 0 1-1.086 2.472 28.744 28.744 0 0 1-9.72 3.434 38.819 38.819 0 0 1-11.918.1 18.552 18.552 0 0 1-7.071-2.472 14.519 14.519 0 0 1-6.542-9.181c-1-4.087-.953-8.254-.971-12.421-.009-2.5 0-5 0-7.495h.115"/><path data-name="Path 71" d="M209.85 19.738h18.388a2.971 2.971 0 0 1 .653 2.225c.018 1.872.026 3.743.053 5.615.009.441.079.883.159 1.73a10.621 10.621 0 0 0 1.209-1.095c.556-.689 1.015-1.457 1.571-2.145a20.353 20.353 0 0 1 12.35-7.2 18.26 18.26 0 0 1 6.877.371 17.779 17.779 0 0 1 3.188.814c1.669.662 2.181 1.6 1.677 3.328a20.167 20.167 0 0 1-1.668 3.672c-1.227 2.3-2.525 4.555-3.8 6.833l-.071.132a4.422 4.422 0 0 1-4.868 3.035c-5.359-.406-8.978 2.657-11.98 6.55a21.573 21.573 0 0 0-4.37 13.268q-.146 11.719-.274 23.429c0 .309-.026.627-.026.936a1.043 1.043 0 0 1-1.024 1.156 27.528 27.528 0 0 1-2.816.238q-6.621.04-13.233.035c-1.774 0-2.136-.309-2.233-2.057-.071-1.448-.053-2.913-.053-4.37q-.026-24.908-.044-49.834c0-1.51-.018-3.019.027-4.529a19.164 19.164 0 0 1 .309-2.136"/><path data-name="Path 72" d="M557.548 64.629c-1.13-.053-1.8-.115-2.481-.115-3.355-.009-6.718.044-10.082-.026-1.51-.035-3.019-.291-4.52-.477a3.2 3.2 0 0 1-.9-.265c-1.046-.415-1.615-1.136-1.562-1.936.071-.971.847-1.227 1.571-1.545a8.527 8.527 0 0 1 3.558-.441q5.668.106 11.326.088c3.152-.009 6.294-.1 9.446-.132a5.426 5.426 0 0 1 1.236.221 1.107 1.107 0 0 1 .909 1.112 5.409 5.409 0 0 1-1.121 4.114c-.989 1.148-2.039 2.242-3.063 3.355-2.437 2.657-4.864 5.306-7.318 7.98a3.466 3.466 0 0 0 1.924 1.28 30.756 30.756 0 0 1 4.237 1.651 11 11 0 0 1 2.719 17.462 14.759 14.759 0 0 1-12.818 4.627 22.544 22.544 0 0 1-8-2.172 16.074 16.074 0 0 1-5.8-4.44c-.856-1.139-.936-1.624.106-2.551a10.547 10.547 0 0 1 2.94-1.721c.415-.177 1.086.115 1.589.327a3.156 3.156 0 0 1 .936.821 15.3 15.3 0 0 0 8.175 4.388 4.439 4.439 0 0 0 1.4.132 10.116 10.116 0 0 0 7.574-3.911 4.648 4.648 0 0 0 .49-5.145 7.35 7.35 0 0 0-2.807-3.09 15.276 15.276 0 0 0-6.674-2.136 14.182 14.182 0 0 1-2.94-.468c-2.437-.733-2.975-2.428-1.351-4.379 1.7-2.048 3.5-4.017 5.323-5.968 1.386-1.492 2.887-2.878 4.282-4.361a26.819 26.819 0 0 0 1.7-2.278"/><path data-name="Path 73" d="M427.177 44.17h30.138c.415 1.086.556 9.64.194 12.6a10.868 10.868 0 0 1-1.571.221q-13.533.026-27.075.009c-1.766 0-1.863-.106-1.863-1.872q-.013-4.608.009-9.216c.009-.556.106-1.112.168-1.739"/><path data-name="Path 74" d="M14.592 108.716c3.575.168 6.6.636 9.11 2.754a2.531 2.531 0 0 1 .512 3.487 1.088 1.088 0 0 1-1.474.494 39.939 39.939 0 0 1-1.986-.936 7.775 7.775 0 0 1-.953-.539 6.649 6.649 0 0 0-5.773-1.192 9.108 9.108 0 0 0-5.429 3.734 10.258 10.258 0 0 0-1.872 8.122 8.36 8.36 0 0 0 4.926 6.065 25.064 25.064 0 0 0 2.666.936 5.8 5.8 0 0 0 6.312-1.624c.23-.221.406-.477.627-.7 1.262-1.271 2.507-1.077 3.761-.035a2.351 2.351 0 0 1-.327 3.452 12.759 12.759 0 0 1-6.4 2.8 13.187 13.187 0 0 1-14.019-6.55 13.108 13.108 0 0 1 .035-14.24c2.428-4.061 6.188-5.685 10.285-6.03"/><path data-name="Path 75" d="M99.792 117.967a5.311 5.311 0 0 1 1.077.009 13.354 13.354 0 0 0 6.082-.185 6.566 6.566 0 0 1 5.094.989c.609.371 1.271.671 1.872.98a14.029 14.029 0 0 1 1.474-1.113 8.35 8.35 0 0 1 8.431.636 3.291 3.291 0 0 1 1.006 1.518 12.547 12.547 0 0 1 .627 3.046c.177 3.275.274 6.55.371 9.817a1.67 1.67 0 0 1-1.325 1.694 1.741 1.741 0 0 1-1.8-1.395 8.26 8.26 0 0 1-.106-1.554c-.009-1.607.088-3.231-.009-4.838a39.654 39.654 0 0 0-.556-4.308 2.574 2.574 0 0 0-1.651-1.942 3.3 3.3 0 0 0-4.44 1.368 8.279 8.279 0 0 0-1.095 4.184 723.385 723.385 0 0 0-.009 6.25 2.41 2.41 0 0 1-1.66 2.4c-.795.327-1.227.185-1.439-.636a15.041 15.041 0 0 1-.477-3.072c-.071-1.554 0-3.116 0-4.679a9.661 9.661 0 0 0-.847-4.255c-.556-1.183-1.315-2.136-2.825-2.083a3.026 3.026 0 0 0-2.9 2.039 12.588 12.588 0 0 0-.83 3.3c-.212 2.278-.247 4.564-.362 6.851a7.262 7.262 0 0 1-.062 1.245 1.467 1.467 0 0 1-2.189.962 2.43 2.43 0 0 1-1.439-2.384c.026-2.445.035-4.9.018-7.345-.018-1.977-.106-3.946-.132-5.924-.009-.5.062-1.006.1-1.58"/><path data-name="Path 76" d="M164.749 127.934c1.412 2.26 1.28 3.487-.388 4.952a10.921 10.921 0 0 1-10.082 2.507 20.945 20.945 0 0 1-2.587-.662c-5.005-1.774-8.21-5.032-8.81-10.479a16.378 16.378 0 0 1 .238-6.047c1.368-5.129 5.05-7.822 9.993-9.058a13.9 13.9 0 0 1 6.091-.044 12.285 12.285 0 0 1 5.385 2.772c.115.1.274.212.3.344a5.349 5.349 0 0 1 .247 1.942c-.132.7-.918.786-1.545.786a4.213 4.213 0 0 1-1.518-.282c-1.218-.486-2.4-1.033-3.593-1.58a5.323 5.323 0 0 0-4.255-.238 11.6 11.6 0 0 0-5.208 3.046 9.288 9.288 0 0 0-1.2 10.6 10.5 10.5 0 0 0 7.177 5.35c2.278.494 4.326-.424 6.25-1.563.486-.291.865-.759 1.342-1.077.671-.45 1.395-.821 2.163-1.271"/><path data-name="Path 77" d="M278.487 126.169c0-2.242-.009-4.476 0-6.718.009-1.368.327-1.73 1.713-1.4a17.663 17.663 0 0 0 6.091.159c1.43-.159 1.836-.486 2-1.889.124-.98.221-1.969.265-2.949a6.836 6.836 0 0 1 6.453-6.656c1.024-.062 1.783.256 2.03.856a1.723 1.723 0 0 1-.768 2.163 26.869 26.869 0 0 1-2.745 1.819 3.521 3.521 0 0 0-1.077 5.023 3.061 3.061 0 0 0 1.024.662c.653.335 1.351.583 1.969.971a2.654 2.654 0 0 1 .9 1.024c.362.777.088 1.262-.759 1.527-.6.185-1.218.318-1.819.512a2.031 2.031 0 0 0-1.536 1.783c-.1.83-.265 1.651-.282 2.481-.035 2.189 0 4.37 0 6.559a14.011 14.011 0 0 1-.035 1.721c-.1.936-.556 1.457-1.271 1.554a1.918 1.918 0 0 1-2.057-1.324 9.017 9.017 0 0 1-.221-2.013c-.018-2.966.009-5.932-.018-8.9-.018-1.924-.212-2.145-2.039-2.534a16.976 16.976 0 0 0-2.481-.362c-1.1-.062-1.395.274-1.377 1.386.071 3.478.159 6.965.23 10.443a13.147 13.147 0 0 1-.044 1.563 1.689 1.689 0 0 1-1.5 1.721 2.583 2.583 0 0 1-2.328-1.534 4.966 4.966 0 0 1-.088-1.086c-.009-2.189-.009-4.37-.009-6.559h-.221"/><path data-name="Path 78" d="M432.13 14.212a3.513 3.513 0 0 1-.883 2.286 4.969 4.969 0 0 0-.777 1.165c-1.686 3.231-7.5 5.526-11.671 2.693a12.118 12.118 0 0 1-4.873-6.647c-.194-.609-.371-1.262.124-1.774a2.664 2.664 0 0 0 .636-1.863c.124-2.181 1.439-3.628 3.116-4.794a2.67 2.67 0 0 1 1.474-.406c1.933 0 3.875.185 5.8.088a6.705 6.705 0 0 1 4.546 1.819.661.661 0 0 1 .212.23c.962 2.233 2.269 4.361 2.3 7.2m-8.431-4.37a2.351 2.351 0 0 1 2.8-.733 1.274 1.274 0 0 1 .715 2.163c-.23.291-.53.512-.75.8a1.3 1.3 0 0 0 .23 2.013c.424.388.786.83 1.218 1.2.4.335.865.6 1.5 1.033a15.686 15.686 0 0 0 .247-4.458c-.023-2.121-1.541-3.277-2.999-4.46a1.955 1.955 0 0 0-.883-.309 2.027 2.027 0 0 0-2.083 2.754m2.878 9.234c.079-.132.168-.256.247-.388a12.859 12.859 0 0 0-.83-1.218c-.371-.433-.821-.795-1.227-1.2a1.882 1.882 0 0 0-2.348-.618c-1.077.344-2.2.591-3.275.927a4.83 4.83 0 0 0-.989.565c1.015 1.492 1.421 1.9 2.313 1.916 2.039.053 4.07.018 6.109.018"/><path data-name="Path 79" d="M313.064 130.035c-.309 2.746-1.395 4.1-3.867 4.741-2.41.636-4.847.971-7.221-.132a9.013 9.013 0 0 1-5.212-6.772 8.454 8.454 0 0 1 .945-6.153c1.377-2.419 5.932-4.873 9.428-3.752.15.044.3.106.45.15a8.1 8.1 0 0 1 6.3 8.069 1.355 1.355 0 0 1-1.474 1.6c-1.677.053-3.346.035-5.023.026-1.73 0-3.452-.044-5.182-.044-1.227 0-1.748.945-1.148 2.039a4.909 4.909 0 0 0 4.467 2.039 24.091 24.091 0 0 0 3.549-1.227c2.013-.874 2.339-.971 3.99-.583m-8.042-5.174c.927-.044 1.766-.044 2.6-.132a1.678 1.678 0 0 0 1.616-1.262 1.734 1.734 0 0 0-1.095-1.88 6.226 6.226 0 0 0-6.436.274 1.55 1.55 0 0 0-.883 1.536 1.465 1.465 0 0 0 1.465 1.192c.936.124 1.872.194 2.728.274"/><path data-name="Path 80" d="M354.214 136.982c-1.6 0-3.046.044-4.493-.035-.291-.018-.653-.459-.786-.777a3.58 3.58 0 0 1-.079-1.236l.026-26.21c0-.653.1-1.315.168-2.092 1.395 0 2.64-.053 3.893.018 1.024.053 1.324.415 1.368 1.51.124 2.966.291 5.924.309 8.881.026 4.785-.035 9.57-.106 14.354-.026 1.757-.185 3.514-.3 5.588"/><path data-name="Path 81" d="M213.355 129.47a4.531 4.531 0 0 1-2.6 4.873 9.592 9.592 0 0 1-12.668-4.123c-1.713-3.346-1.148-6.294.759-9.216a6.306 6.306 0 0 1 4.361-3.037 10.836 10.836 0 0 1 6.321.636c2.878 1.28 4.079 3.752 4.82 6.559a7.4 7.4 0 0 1 .282 1.686c0 1.024-.689 1.448-1.686 1.165a6 6 0 0 0-1.518-.291c-2.039-.018-4.087.035-6.135.018-.777-.009-1.563-.141-2.339-.194a1.719 1.719 0 0 0-1.792.715c-.415.7-.053 1.3.38 1.854a5.428 5.428 0 0 0 5.941 1.633 32.271 32.271 0 0 0 3.355-1.695 4.121 4.121 0 0 1 2.525-.583m-7.881-4.74v.1c1.051 0 2.1.071 3.143-.018 1.395-.106 1.7-.874.848-1.986a5.113 5.113 0 0 0-1.209-1.218 4.938 4.938 0 0 0-6.815 1.315c-.7.962-.309 1.713.892 1.792 1.042.071 2.092.018 3.143.018"/><path data-name="Path 82" d="M38.341 123.767c.018-1.721-.282-2.278-1.616-2.6a7.193 7.193 0 0 0-2.463-.124 16.27 16.27 0 0 0-2.278.583c-.5.124-1.015.256-1.536.335-1.1.168-1.836-.071-2.092-.644a1.929 1.929 0 0 1 .971-2.269 9.849 9.849 0 0 1 7.4-1.3 15.416 15.416 0 0 1 1.51.433c2.525.724 3.425 1.854 3.5 4.493.035 1.51.044 3.028 0 4.529a18.45 18.45 0 0 0 .786 5.853c.406 1.386.335 1.589-.591 2.746-.371-.1-.777-.194-1.174-.291a11.366 11.366 0 0 0-5.579-.309 8.869 8.869 0 0 1-5.838-.735 3.132 3.132 0 0 1-2-3.072c.018-.415.026-.83.035-1.254.071-2.772 1.236-4.343 3.973-5.041 1.713-.441 3.487-.68 5.235-1.015.556-.106 1.121-.2 1.757-.318m-1.236 3.461c-2.278.2-4.229.15-5.526 2.013a1.917 1.917 0 0 0-.415 1.695 1.43 1.43 0 0 0 1.457 1.2c2.12-.079 4.165-.423 5.52-2.323.441-.627.795-1.368.247-2-.344-.4-1.051-.486-1.289-.591"/><path data-name="Path 83" d="M248.199 135.592a18.764 18.764 0 0 1-2.225-.75 3.62 3.62 0 0 0-3.461-.026 6.176 6.176 0 0 1-6.286-.424 5.577 5.577 0 0 1-2.868-4.4 1.457 1.457 0 0 1 .221-.874c.671-1 1.377-1.969 2.1-2.922a4.176 4.176 0 0 1 2.86-1.448c2.013-.327 4.017-.689 6.012-1.024.309-1.386-.079-2.163-1.262-2.56a4.414 4.414 0 0 0-3.222.044c-.724.3-1.439.644-2.172.918a5.093 5.093 0 0 1-1.51.4 1.494 1.494 0 0 1-1.58-2.145 3.238 3.238 0 0 1 1.563-1.872 9.247 9.247 0 0 1 6.559-.724 18.9 18.9 0 0 1 2.525.856 4.178 4.178 0 0 1 2.94 4.043c.115 4.052.035 8.113.026 12.174a3.23 3.23 0 0 1-.221.742m-5.694-8.237v.029c-.68.035-1.36.044-2.039.124a3.082 3.082 0 0 0-2.666 2.11 1.568 1.568 0 0 0 1.289 2.313 5.3 5.3 0 0 0 3.928-.7 6.541 6.541 0 0 0 1.933-2.172c.53-.927.026-1.624-1.033-1.7-.468-.035-.945-.009-1.412-.009"/><path data-name="Path 84" d="M253.24 106.641c1.421 0 2.719-.062 4.017.018.953.062 1.236.433 1.262 1.439.071 3.849.159 7.7.15 11.538 0 5.1-.088 10.2-.141 15.29-.009.565 0 1.13 0 1.81a12.264 12.264 0 0 1-4.864.159c-.2-.018-.45-.406-.521-.671a5.206 5.206 0 0 1-.071-1.236q0-13.11.018-26.219c0-.653.088-1.315.15-2.128"/><path data-name="Path 85" d="M46.55 106.636c1.386 0 2.64-.053 3.884.018 1.059.062 1.36.406 1.377 1.5.071 3.8.159 7.6.15 11.4 0 5.111-.088 10.214-.132 15.317-.009.618 0 1.227 0 1.924a13.439 13.439 0 0 1-4.661.132c-.274-.026-.609-.5-.733-.839a3.819 3.819 0 0 1-.061-1.242q0-13.057.018-26.1c0-.653.1-1.315.159-2.11"/><path data-name="Path 86" d="M346.322 126.787a7.284 7.284 0 0 1-2.5 6.515 6.983 6.983 0 0 1-3.778 1.748c-3.664.653-7.054.062-9.64-2.781a8.7 8.7 0 0 1-2.242-7.477 7.6 7.6 0 0 1 3.973-5.977 9.415 9.415 0 0 1 8.025-.724 14.218 14.218 0 0 1 2.154.945 7.366 7.366 0 0 1 4.008 6.294c.026.512 0 1.033 0 1.457m-3.778-.441a18.96 18.96 0 0 0-.627-2.249 4.848 4.848 0 0 0-8.245-1.563c-.212.23-.406.477-.627.706a5.064 5.064 0 0 0 1.333 7.989 4.874 4.874 0 0 0 5.217.15 5.861 5.861 0 0 0 2.949-5.032"/><path data-name="Path 87" d="M176.304 117.535a14.905 14.905 0 0 1 6.55 2.181c2.083 1.324 4.017 6.33 2.9 8.837-.75 1.668-1.236 3.469-2.7 4.679a9.049 9.049 0 0 1-2.534 1.483 18.158 18.158 0 0 1-3.372.777 4.451 4.451 0 0 1-1.872-.053 13.742 13.742 0 0 1-5.164-2.578 4.214 4.214 0 0 1-1.262-1.563c-1.156-2.913-1.73-5.818-.406-8.916 1.492-3.5 4.326-4.564 7.866-4.847m-4.864 8.863c.124.715.2 1.439.388 2.136a5.172 5.172 0 0 0 4.6 3.39 5.572 5.572 0 0 0 5.606-4.714c.5-2.578-1.4-5.774-3.761-6.286a5.54 5.54 0 0 0-6.833 5.473"/><path data-name="Path 88" d="M96.349 126.857v5.932a9.8 9.8 0 0 1-.062 1.245c-.132 1.059-.759 1.668-1.792 1.465a28.692 28.692 0 0 0-6.091-.071c-3.028.044-6.709-1.28-7.486-4.944a20.94 20.94 0 0 1-.6-3.5c-.079-2.392-.018-4.794.018-7.186a2.507 2.507 0 0 1 .282-1.333 1.668 1.668 0 0 1 2.957.088 3.228 3.228 0 0 1 .371 1.474c.088 2.339.115 4.679.185 7.018a17.851 17.851 0 0 0 .15 2.181 3.565 3.565 0 0 0 2.825 3 2.449 2.449 0 0 0 2.331-.627 6.027 6.027 0 0 0 2.207-4.322c.221-2.437.4-4.873.627-7.31a4.843 4.843 0 0 1 .415-1.624 1.606 1.606 0 0 1 1.668-.953 1.746 1.746 0 0 1 1.492 1.236 6.93 6.93 0 0 1 .327 1.986c.044 2.083.018 4.167.018 6.25h.159"/><path data-name="Path 89" d="M69.352 122.32a3.58 3.58 0 0 1-3-.4 6.087 6.087 0 0 0-5.156-.556c-1.889.565-2.64 2.189-2.931 3.937-.574 3.443.486 4.917 2.79 6.109 1.43.733 2.746.282 4.087-.185a26.253 26.253 0 0 1 2.657-.918c1.165-.256 1.518.071 1.66 1.245.2 1.721-.177 2.322-1.774 3.01a9.8 9.8 0 0 1-10-.839 6.444 6.444 0 0 1-2.392-2.622 10.443 10.443 0 0 1-.035-9.34c2-4.087 6.383-4.732 9.649-4.017 1.059.23 2.039.786 3.081 1.121a2.119 2.119 0 0 1 1.544 2.52c-.035.309-.115.6-.177.936"/><path data-name="Path 90" d="M276.007 122.293a4.456 4.456 0 0 1-3-.3 13.4 13.4 0 0 0-3.928-1 3.984 3.984 0 0 0-3.408 1.651 6.255 6.255 0 0 0 .3 7.8 4.087 4.087 0 0 0 4.44 1.218c1.033-.362 2.048-.795 3.1-1.112a1.8 1.8 0 0 1 2.313.759 2.8 2.8 0 0 1-.936 2.922c-4.017 1.827-8.184 1.624-11.785-1.395a6.881 6.881 0 0 1-2.428-5.4 19.91 19.91 0 0 1 .212-4.043 6.76 6.76 0 0 1 3.7-4.794c3.717-1.96 7.3-1.333 10.726.8 1.121.689.9 1.739.7 2.9"/><path data-name="Path 91" d="M232.405 121.658a5.172 5.172 0 0 1-4.749-.194 4.259 4.259 0 0 0-6.056 1.156 9.365 9.365 0 0 0-1.13 1.863 5.306 5.306 0 0 0 1.236 6.03c1.571 1.5 3.319 2.11 5.429 1.139a20.254 20.254 0 0 1 2.507-.927c1.254-.38 2.03-.088 2.357.812a2.222 2.222 0 0 1-1.051 2.781 12.11 12.11 0 0 1-2.71.8c-3.6.539-6.9-.018-9.455-2.9a9.725 9.725 0 0 1-2.357-5.517 7.7 7.7 0 0 1 1.836-5.509 9.245 9.245 0 0 1 12.677-1.845 2.927 2.927 0 0 1 1.465 2.313"/><path data-name="Path 92" d="M130.107 136.295c-.424-.327-.777-.547-1.077-.821-1.368-1.254-1.28-1.395-.521-3.046 1.315-2.834 2.507-5.721 3.69-8.607 1.457-3.558 2.807-7.168 4.317-10.708.768-1.8 1.783-3.5 2.745-5.376a14.661 14.661 0 0 0 1.227.892c1.819 1.006 1.554 1.739.909 3.222-2.278 5.244-4.608 10.47-6.895 15.714-.839 1.907-1.58 3.849-2.4 5.765a7.57 7.57 0 0 1-2 2.966"/><path data-name="Path 93" d="M316.893 118.249a5.485 5.485 0 0 1 1.554-.212 12.07 12.07 0 0 0 4.67-.344 11.969 11.969 0 0 1 1.854-.318 5.049 5.049 0 0 1 1.545.141c.856.221 1.589.989 1.5 1.589-.115.821-.733 1.2-1.483 1.43s-1.492.459-2.225.733a4.942 4.942 0 0 0-3.39 4.926c-.053 1.969-.009 3.946-.009 5.924a13.825 13.825 0 0 1-.071 1.713 2.023 2.023 0 0 1-1.757 1.73 2.347 2.347 0 0 1-1.774-1.757 6.348 6.348 0 0 1-.044-1.086c-.009-3.169.027-6.338-.026-9.508-.026-1.6-.221-3.2-.344-4.961"/><path data-name="Path 94" d="M192.709 136.798c-.7 0-1.1.018-1.527 0a.931.931 0 0 1-.945-.865 11.04 11.04 0 0 1-.177-1.7q-.013-12.951-.009-25.9a1.594 1.594 0 0 1 .009-.459c.141-.468.291-1.307.5-1.324a6.181 6.181 0 0 1 2.1.3c.15.044.265.433.3.671a7.407 7.407 0 0 1 .026 1.086q0 12.567-.026 25.124c0 .971-.159 1.942-.256 3.072"/><path data-name="Path 95" d="M76.071 126.565c0 1.925.009 3.849 0 5.773a11.451 11.451 0 0 1-.079 1.554 1.583 1.583 0 0 1-1.359 1.333 2.4 2.4 0 0 1-2.826-2.177q-.04-6.542.009-13.083c.018-1.465.362-1.854 1.554-2.172a1.92 1.92 0 0 1 2.666 1.916c.044 1.3.018 2.6.018 3.893.009.989 0 1.977 0 2.966h.018"/><path data-name="Path 96" d="M74.567 114.083a2.582 2.582 0 0 1-2.657-2.181 2.55 2.55 0 0 1 1.827-2.092 3.482 3.482 0 0 1 2.816 2.384 2.216 2.216 0 0 1-1.986 1.889"/><path data-name="Path 97" d="M280.498 114.189a1.87 1.87 0 0 1-1.836-2.075c0-1.042 1.2-2.445 2.075-2.41a2.512 2.512 0 0 1 1.872 2.4 2.164 2.164 0 0 1-2.11 2.083"/></g></g></svg>