<svg data-name="Group 86" xmlns="http://www.w3.org/2000/svg" width="598.991" height="247.854"><defs><clipPath id="a"><path data-name="Path 60" d="M2.821 224.365h598.991V-23.489H2.821Z" transform="translate(-2.821 23.489)" fill="none"/></clipPath></defs><g data-name="Group 51" clip-path="url(#a)"><g data-name="Group 37"><path data-name="Path 46" d="M111.579 79.225a50.879 50.879 0 0 0-38.377-1.936A29.945 29.945 0 0 1 38.95 125.97a51.055 51.055 0 1 0 72.629-46.745" fill="#e42c6a"/></g><g data-name="Group 38"><path data-name="Path 47" d="M68.729 76.674a30.919 30.919 0 0 0-1.942-1.15 17.9 17.9 0 0 1-1.73 4.209 18.592 18.592 0 0 1-25.346 6.987 18.761 18.761 0 0 1-6.437-6.078 26.9 26.9 0 0 0-2.976 3.672 27.694 27.694 0 1 0 38.43-7.64" fill="#ed7c9a"/></g><g data-name="Group 39"><path data-name="Path 48" d="M66.79 75.525a18.58 18.58 0 1 0-33.513 5.118 27.7 27.7 0 0 1 33.513-5.118" fill="#e74e7d"/></g><g data-name="Group 40"><path data-name="Path 49" d="M65.058 79.737a17.384 17.384 0 0 0 1.731-4.21 27.692 27.692 0 0 0-33.5 5.107 18.564 18.564 0 0 0 6.426 6.088 18.6 18.6 0 0 0 25.343-6.985" fill="#e42c6a"/></g><g data-name="Group 41"><path data-name="Path 50" d="M19.505 63.205a11.529 11.529 0 1 1-15.986 3.198 11.546 11.546 0 0 1 15.986-3.2" fill="#e96188"/></g><g data-name="Group 42"><path data-name="Path 51" d="M29.663 33.521a10.06 10.06 0 1 1-13.939 2.817 10.06 10.06 0 0 1 13.939-2.817" fill="#e42c6a"/></g><g data-name="Group 43"><path data-name="Path 52" d="M179.444 158.118c8.178 0 11.713-3.946 11.713-12.694 0-7.766-2.691-12.261-11.713-12.261h-11.006v24.955Zm-.57-41.617c7.481 0 10.024-3.946 10.024-11.28 0-7.2-3.113-10.573-10.3-10.573h-10.16v21.854ZM147.693 77.28h36.826c15.659 0 25.673 7.766 25.673 25.114 0 10.731-2.828 16.8-12.694 20.745 9.18 2.121 16.366 9.317 16.366 23.425 0 19.88-9.877 28.765-30.748 28.765h-35.423Z" fill="#fff"/></g><g data-name="Group 44"><path data-name="Path 53" d="M224.593 83.077a12 12 0 1 1 12 11.85 11.865 11.865 0 0 1-12-11.85m1.983 35.128-8.188-1.984v-12.979h28.216v72.091h-20.028Z" fill="#fff"/></g><g data-name="Group 45"><path data-name="Path 54" d="M259.738 103.24h16.208l1.7 6.912c5.359-5.064 11.292-8.737 20.311-8.737 12.281 0 18.761 5.223 18.761 19.88v54.036h-20.017v-49.52c0-6.912-2.554-8.463-6.637-8.463-4.369 0-7.059 1.551-10.436 4.242v53.741h-19.89Z" fill="#fff"/></g><g data-name="Group 46"><path data-name="Path 55" d="M367.096 138.94c0-19.046-2.258-22.708-10.024-22.708-7.893 0-9.866 4.084-9.866 23.278 0 18.339 2.11 22.993 10.014 22.993 7.756 0 9.877-5.086 9.877-23.562m-41.342 0c-.001-27.099 11.437-37.524 31.317-37.524 19.9 0 31.318 10.858 31.318 38.092 0 27.076-11.417 37.67-31.318 37.67-19.88 0-31.318-11.164-31.318-38.24" fill="#fff"/></g><g data-name="Group 47"><path data-name="Path 56" d="m392.084 170.536 6.342-15.09a31.7 31.7 0 0 0 16.925 5.36c6.637 0 9.739-1.984 9.739-6.342 0-5.086-3.1-6.215-12.272-8.906-10.573-3.1-17.21-8.737-17.21-22.286 0-14.381 9.17-21.862 24.534-21.862 10.024 0 15.955 1.688 22.17 4.516l-4.95 14.952a32.221 32.221 0 0 0-15.1-3.535c-4.358 0-7.186 1.709-7.186 5.656 0 4.664 2.121 5.35 10.151 7.608 11.157 3.102 19.757 7.492 19.757 22.719 0 15.1-8.041 23.847-26.39 23.847-11.558 0-20.865-3.24-26.51-6.637" fill="#fff"/></g><g data-name="Group 48"><path data-name="Path 57" d="M448.944 103.24h7.334V85.622l19.88-3.387v21.005h13.263v15.11h-13.264v36.109c0 6.2 1.847 7.608 5.371 7.608a16.077 16.077 0 0 0 6.2-1.551l2.67 13.549a30.251 30.251 0 0 1-13.812 3.113c-12.282 0-20.312-4.242-20.312-18.065V118.35h-7.33Z" fill="#fff"/></g><g data-name="Group 49"><path data-name="Path 58" d="M535.841 138.94c0-19.046-2.258-22.708-10.014-22.708-7.893 0-9.877 4.084-9.877 23.278 0 18.339 2.121 22.993 10.014 22.993 7.756 0 9.877-5.086 9.877-23.562m-41.332 0c0-27.099 11.417-37.524 31.317-37.524 19.87 0 31.309 10.856 31.309 38.092 0 27.076-11.438 37.67-31.308 37.67-19.9 0-31.318-11.164-31.318-38.24" fill="#fff"/></g><g data-name="Group 50"><path data-name="Path 59" d="M564.508 109.107c1.287 0 1.72-.58 1.72-1.825 0-1.14-.475-1.678-1.72-1.678h-1.4v3.503Zm-3.177-5h3.177c2.3 0 3.545 1.1 3.545 3.081a2.637 2.637 0 0 1-2.015 2.938c.623.19 1.045.739 1.393 1.836l1.055 3.155h-1.91l-1.013-3.155c-.39-1.213-.823-1.488-1.53-1.488h-.929v4.643h-1.773Zm9.729 5.614c0-5.335-2.405-8.184-6.552-8.184-4.19 0-6.564 2.849-6.564 8.188 0 5.308 2.374 8.209 6.563 8.209 4.147 0 6.553-2.9 6.553-8.209m-14.8 0c0-6.088 3.4-9.676 8.252-9.676 4.875 0 8.231 3.588 8.231 9.676 0 6.173-3.356 9.687-8.231 9.687-4.854 0-8.252-3.514-8.252-9.687" fill="#fff"/></g></g><g fill="#fff" data-name="Group 52" clip-path="url(#a)"><text data-name="Alendronic acid" transform="translate(145.392 223.811)" font-size="46" font-family="HelveticaNeueLTPro-Cn, Helvetica Neue LT Pro"><tspan x="0" y="0">Alendronic acid</tspan></text><text data-name="70 mg" transform="translate(427.705 223.811)" font-size="46" font-family="HelveticaNeueLTPro-BdCn, Helvetica Neue LT Pro"><tspan x="0" y="0" xml:space="preserve"> 70 mg</tspan></text><text data-name="Effervescent T" transform="translate(145.392 285.108)" font-size="47" font-family="HelveticaNeueLTPro-Cn, Helvetica Neue LT Pro"><tspan x="0" y="0">Effervescent T</tspan></text><text transform="translate(404.505 285.108)" font-size="48" font-family="HelveticaNeueLTPro-Cn, Helvetica Neue LT Pro"><tspan x="0" y="0">ablets</tspan></text></g><text transform="translate(146.087 46.602)" fill="#fff" font-size="47" font-family="HelveticaNeueLTPro-Cn, Helvetica Neue LT Pro"><tspan x="0" y="0">Buffered</tspan></text></svg>