<?xml version="1.0" encoding="UTF-8" standalone="no"?>
<svg
   width="1617.0511"
   height="103.40369"
   viewBox="0 0 1617.0512 103.40369"
   version="1.1"
   id="svg58"
   xmlns="http://www.w3.org/2000/svg"
   xmlns:svg="http://www.w3.org/2000/svg">
  <defs
     id="defs1" />
  <path
     id="Path_212"
     data-name="Path 212"
     d="m 1431.5909,102.18627 a 25.654,25.654 0 0 0 16.4563,-8.808134 c 2.6288,-2.886561 4.4202,-6.450838 6.8382,-9.406089 a 46.055,46.055 0 0 1 24.3076,-16.609304 c 5.2716,-1.766266 11.7099,-2.988089 15.029,-8.238961 2.8132,-4.623609 2.6738,-11.192042 -1.1426,-15.216259 -3.1317,-3.250152 -7.4093,-4.630016 -11.1694,-6.14587 -7.0208,-2.596924 -13.768,-5.963193 -19.1299,-11.291581 -5.8107,-5.168198 -9.0702,-12.272166 -14.0212,-18.1574707 -10.0413,-11.4749919 -28.9505,-11.1119479 -38.1604,1.3522154 -11.2971,14.7450843 4.6892,26.7299093 5.6301,41.2415403 -0.8128,10.353391 -9.9897,17.828371 -10.9265,29.270764 -0.3666,13.324631 13.6391,23.777649 26.2888,22.010149 m -18.9281,-22.216718 c -0.9945,-9.091741 4.6997,-19.655972 5.3637,-29.161831 -0.2603,-12.074382 -9.7539,-25.641136 -1.2762,-36.441823 6.7174,-9.0711485 20.5731,-10.4235389 29.027,-2.95286 5.3612,5.134348 9.4366,12.023523 15.0687,17.049583 7.0667,7.244433 16.0914,13.126832 24.4295,18.636191 3.0498,1.988529 3.6471,4.952406 2.3323,8.141944 -1.7244,3.215395 -7.0488,5.424808 -10.4557,7.627684 a 105.718,105.718 0 0 0 -24.1984,19.463645 c -3.2769,3.572355 -6.2024,7.932961 -10.4445,10.365297 -11.0854,7.258643 -27.6672,0.345193 -29.8464,-12.72783"
     fill="#757ea0" />
  <path
     id="Path_213"
     data-name="Path 213"
     d="m 1006.5149,102.20727 a 25.654,25.654 0 0 0 16.4563,-8.808131 c 2.6288,-2.886561 4.4202,-6.450838 6.8382,-9.406089 a 46.055,46.055 0 0 1 24.3076,-16.609304 c 5.2716,-1.766267 11.7099,-2.988089 15.029,-8.238962 2.8132,-4.623608 2.6738,-11.192041 -1.1426,-15.216259 -3.1317,-3.250151 -7.4093,-4.630015 -11.1694,-6.145869 -7.0208,-2.596925 -13.768,-5.963194 -19.1299,-11.291582 -5.8107,-5.168198 -9.0702,-12.272166 -14.0212,-18.1574701 -10.0413,-11.4749919 -28.95049,-11.1119479 -38.16043,1.3522148 -11.29705,14.7450853 4.68922,26.7299093 5.6301,41.2415403 -0.81282,10.353391 -9.98967,17.828372 -10.92651,29.270764 -0.36661,13.324632 13.6391,23.777647 26.28884,22.010147 M 987.58678,79.991554 c -0.99448,-9.091741 4.69976,-19.655971 5.36376,-29.161831 -0.26031,-12.074382 -9.75398,-25.641136 -1.27619,-36.441823 6.71735,-9.0711479 20.57305,-10.4235383 29.02695,-2.952859 5.3612,5.134348 9.4366,12.023522 15.0687,17.049582 7.0667,7.244434 16.0914,13.126832 24.4295,18.636192 3.0498,1.988528 3.6471,4.952405 2.3323,8.141943 -1.7244,3.215396 -7.0488,5.424809 -10.4557,7.627685 a 105.718,105.718 0 0 0 -24.1984,19.463644 c -3.2769,3.572356 -6.2024,7.932962 -10.4445,10.365297 -11.0854,7.258641 -27.66724,0.345193 -29.84642,-12.72783"
     fill="#74378c" />
  <path
     id="Path_214"
     data-name="Path 214"
     d="m 574.15596,103.20727 a 25.654,25.654 0 0 0 16.45623,-8.808136 c 2.62878,-2.886562 4.42026,-6.450839 6.8382,-9.40609 A 46.055,46.055 0 0 1 621.75796,68.38374 c 5.27163,-1.766266 11.70994,-2.988089 15.02908,-8.238961 2.81312,-4.623609 2.67374,-11.192042 -1.14261,-15.216259 -3.13175,-3.250152 -7.40932,-4.630016 -11.16944,-6.14587 -7.02075,-2.596924 -13.76803,-5.963193 -19.12985,-11.291581 -5.81069,-5.168198 -9.0702,-12.272166 -14.02124,-18.1574707 -10.04127,-11.4749919 -28.95048,-11.1119479 -38.16042,1.3522157 -11.29705,14.745084 4.68922,26.729909 5.6301,41.24154 -0.81282,10.353391 -9.98967,17.828371 -10.92651,29.270764 -0.3666,13.324631 13.6391,23.777652 26.28887,22.010152 M 555.22779,80.991549 c -0.99447,-9.091741 4.69976,-19.655972 5.36377,-29.161831 -0.26032,-12.074382 -9.75399,-25.641136 -1.2762,-36.441823 6.71734,-9.0711485 20.57305,-10.4235389 29.02695,-2.95286 5.36121,5.134348 9.4366,12.023523 15.06874,17.049583 7.06665,7.244433 16.09136,13.126832 24.42948,18.636191 3.04976,1.988529 3.64712,4.952406 2.33226,8.141944 -1.72438,3.215395 -7.04875,5.424808 -10.45572,7.627684 A 105.718,105.718 0 0 0 595.5187,83.354082 c -3.27685,3.572355 -6.20239,7.932961 -10.44449,10.365297 -11.08537,7.258631 -27.66724,0.345193 -29.84642,-12.72783"
     fill="#eb691d" />
  <path
     id="Path_215"
     data-name="Path 215"
     d="m 149.67095,102.18627 a 25.654,25.654 0 0 0 16.45623,-8.808136 c 2.62877,-2.886561 4.42025,-6.450838 6.8382,-9.406089 a 46.055,46.055 0 0 1 24.30757,-16.609304 c 5.27163,-1.766267 11.70993,-2.988089 15.02908,-8.238962 2.81312,-4.623608 2.67374,-11.192041 -1.14261,-15.216258 -3.13176,-3.250152 -7.40933,-4.630016 -11.16944,-6.14587 -7.02075,-2.596925 -13.76803,-5.963193 -19.12985,-11.291582 -5.81069,-5.168197 -9.07021,-12.272166 -14.02125,-18.15747 -10.04126,-11.4749919 -28.95048,-11.1119479 -38.16041,1.3522147 -11.29706,14.7450853 4.68921,26.7299093 5.63009,41.2415403 -0.81281,10.353392 -9.98966,17.828372 -10.9265,29.270764 -0.36661,13.324632 13.6391,23.777652 26.28887,22.010152 M 130.74278,79.970549 c -0.99448,-9.09174 4.69976,-19.655971 5.36376,-29.161831 -0.26031,-12.074382 -9.75398,-25.641135 -1.27619,-36.441823 6.71733,-9.0711478 20.57305,-10.4235382 29.02695,-2.952859 5.36121,5.134348 9.4366,12.023522 15.06874,17.049582 7.06664,7.244434 16.09136,13.126833 24.42947,18.636192 3.04976,1.988528 3.64713,4.952405 2.33226,8.141943 -1.72438,3.215396 -7.04875,5.424809 -10.45571,7.627685 a 105.718,105.718 0 0 0 -24.19837,19.463644 c -3.27685,3.572356 -6.2024,7.932962 -10.44449,10.365298 -11.08537,7.258635 -27.66724,0.345192 -29.84642,-12.727831"
     fill="#fbc301" />
  <g
     id="Group_210"
     data-name="Group 210"
     transform="translate(239,43.587325)">
    <g
       id="Ellipse_9"
       data-name="Ellipse 9"
       fill="#23185b"
       stroke="#707070"
       stroke-width="1">
      <circle
         cx="9"
         cy="9"
         r="9"
         stroke="none"
         id="circle5" />
      <circle
         cx="9"
         cy="9"
         r="8.5"
         fill="none"
         id="circle6" />
    </g>
    <g
       id="Ellipse_11"
       data-name="Ellipse 11"
       transform="translate(84)"
       fill="#23185b"
       stroke="#707070"
       stroke-width="1">
      <circle
         cx="9"
         cy="9"
         r="9"
         stroke="none"
         id="circle7" />
      <circle
         cx="9"
         cy="9"
         r="8.5"
         fill="none"
         id="circle8" />
    </g>
    <g
       id="Ellipse_13"
       data-name="Ellipse 13"
       transform="translate(168)"
       fill="#23185b"
       stroke="#707070"
       stroke-width="1">
      <circle
         cx="9"
         cy="9"
         r="9"
         stroke="none"
         id="circle9" />
      <circle
         cx="9"
         cy="9"
         r="8.5"
         fill="none"
         id="circle10" />
    </g>
    <g
       id="Ellipse_15"
       data-name="Ellipse 15"
       transform="translate(252)"
       fill="#23185b"
       stroke="#707070"
       stroke-width="1">
      <circle
         cx="9"
         cy="9"
         r="9"
         stroke="none"
         id="circle11" />
      <circle
         cx="9"
         cy="9"
         r="8.5"
         fill="none"
         id="circle12" />
    </g>
    <g
       id="Ellipse_10"
       data-name="Ellipse 10"
       transform="translate(42)"
       fill="#23185b"
       stroke="#707070"
       stroke-width="1">
      <circle
         cx="9"
         cy="9"
         r="9"
         stroke="none"
         id="circle13" />
      <circle
         cx="9"
         cy="9"
         r="8.5"
         fill="none"
         id="circle14" />
    </g>
    <g
       id="Ellipse_12"
       data-name="Ellipse 12"
       transform="translate(126)"
       fill="#23185b"
       stroke="#707070"
       stroke-width="1">
      <circle
         cx="9"
         cy="9"
         r="9"
         stroke="none"
         id="circle15" />
      <circle
         cx="9"
         cy="9"
         r="8.5"
         fill="none"
         id="circle16" />
    </g>
    <g
       id="Ellipse_14"
       data-name="Ellipse 14"
       transform="translate(210)"
       fill="#23185b"
       stroke="#707070"
       stroke-width="1">
      <circle
         cx="9"
         cy="9"
         r="9"
         stroke="none"
         id="circle17" />
      <circle
         cx="9"
         cy="9"
         r="8.5"
         fill="none"
         id="circle18" />
    </g>
  </g>
  <g
     id="Group_211"
     data-name="Group 211"
     transform="translate(674.693,42.587325)">
    <g
       id="Ellipse_9-2"
       data-name="Ellipse 9"
       fill="#23185b"
       stroke="#707070"
       stroke-width="1">
      <circle
         cx="9"
         cy="9"
         r="9"
         stroke="none"
         id="circle19" />
      <circle
         cx="9"
         cy="9"
         r="8.5"
         fill="none"
         id="circle20" />
    </g>
    <g
       id="Ellipse_11-2"
       data-name="Ellipse 11"
       transform="translate(84)"
       fill="#23185b"
       stroke="#707070"
       stroke-width="1">
      <circle
         cx="9"
         cy="9"
         r="9"
         stroke="none"
         id="circle21" />
      <circle
         cx="9"
         cy="9"
         r="8.5"
         fill="none"
         id="circle22" />
    </g>
    <g
       id="Ellipse_13-2"
       data-name="Ellipse 13"
       transform="translate(168)"
       fill="#23185b"
       stroke="#707070"
       stroke-width="1">
      <circle
         cx="9"
         cy="9"
         r="9"
         stroke="none"
         id="circle23" />
      <circle
         cx="9"
         cy="9"
         r="8.5"
         fill="none"
         id="circle24" />
    </g>
    <g
       id="Ellipse_15-2"
       data-name="Ellipse 15"
       transform="translate(252)"
       fill="#23185b"
       stroke="#707070"
       stroke-width="1">
      <circle
         cx="9"
         cy="9"
         r="9"
         stroke="none"
         id="circle25" />
      <circle
         cx="9"
         cy="9"
         r="8.5"
         fill="none"
         id="circle26" />
    </g>
    <g
       id="Ellipse_10-2"
       data-name="Ellipse 10"
       transform="translate(42)"
       fill="#23185b"
       stroke="#707070"
       stroke-width="1">
      <circle
         cx="9"
         cy="9"
         r="9"
         stroke="none"
         id="circle27" />
      <circle
         cx="9"
         cy="9"
         r="8.5"
         fill="none"
         id="circle28" />
    </g>
    <g
       id="Ellipse_12-2"
       data-name="Ellipse 12"
       transform="translate(126)"
       fill="#23185b"
       stroke="#707070"
       stroke-width="1">
      <circle
         cx="9"
         cy="9"
         r="9"
         stroke="none"
         id="circle29" />
      <circle
         cx="9"
         cy="9"
         r="8.5"
         fill="none"
         id="circle30" />
    </g>
    <g
       id="Ellipse_14-2"
       data-name="Ellipse 14"
       transform="translate(210)"
       fill="#23185b"
       stroke="#707070"
       stroke-width="1">
      <circle
         cx="9"
         cy="9"
         r="9"
         stroke="none"
         id="circle31" />
      <circle
         cx="9"
         cy="9"
         r="8.5"
         fill="none"
         id="circle32" />
    </g>
  </g>
  <g
     id="Group_212"
     data-name="Group 212"
     transform="translate(1107.606,42.587325)">
    <g
       id="Ellipse_9-3"
       data-name="Ellipse 9"
       fill="#23185b"
       stroke="#707070"
       stroke-width="1">
      <circle
         cx="9"
         cy="9"
         r="9"
         stroke="none"
         id="circle33" />
      <circle
         cx="9"
         cy="9"
         r="8.5"
         fill="none"
         id="circle34" />
    </g>
    <g
       id="Ellipse_11-3"
       data-name="Ellipse 11"
       transform="translate(84)"
       fill="#23185b"
       stroke="#707070"
       stroke-width="1">
      <circle
         cx="9"
         cy="9"
         r="9"
         stroke="none"
         id="circle35" />
      <circle
         cx="9"
         cy="9"
         r="8.5"
         fill="none"
         id="circle36" />
    </g>
    <g
       id="Ellipse_13-3"
       data-name="Ellipse 13"
       transform="translate(168)"
       fill="#23185b"
       stroke="#707070"
       stroke-width="1">
      <circle
         cx="9"
         cy="9"
         r="9"
         stroke="none"
         id="circle37" />
      <circle
         cx="9"
         cy="9"
         r="8.5"
         fill="none"
         id="circle38" />
    </g>
    <g
       id="Ellipse_15-3"
       data-name="Ellipse 15"
       transform="translate(252)"
       fill="#23185b"
       stroke="#707070"
       stroke-width="1">
      <circle
         cx="9"
         cy="9"
         r="9"
         stroke="none"
         id="circle39" />
      <circle
         cx="9"
         cy="9"
         r="8.5"
         fill="none"
         id="circle40" />
    </g>
    <g
       id="Ellipse_10-3"
       data-name="Ellipse 10"
       transform="translate(42)"
       fill="#23185b"
       stroke="#707070"
       stroke-width="1">
      <circle
         cx="9"
         cy="9"
         r="9"
         stroke="none"
         id="circle41" />
      <circle
         cx="9"
         cy="9"
         r="8.5"
         fill="none"
         id="circle42" />
    </g>
    <g
       id="Ellipse_12-3"
       data-name="Ellipse 12"
       transform="translate(126)"
       fill="#23185b"
       stroke="#707070"
       stroke-width="1">
      <circle
         cx="9"
         cy="9"
         r="9"
         stroke="none"
         id="circle43" />
      <circle
         cx="9"
         cy="9"
         r="8.5"
         fill="none"
         id="circle44" />
    </g>
    <g
       id="Ellipse_14-3"
       data-name="Ellipse 14"
       transform="translate(210)"
       fill="#23185b"
       stroke="#707070"
       stroke-width="1">
      <circle
         cx="9"
         cy="9"
         r="9"
         stroke="none"
         id="circle45" />
      <circle
         cx="9"
         cy="9"
         r="8.5"
         fill="none"
         id="circle46" />
    </g>
  </g>
  <g
     id="Ellipse_17"
     data-name="Ellipse 17"
     transform="translate(42,43.587325)"
     fill="#23185b"
     stroke="#707070"
     stroke-width="1">
    <circle
       cx="9"
       cy="9"
       r="9"
       stroke="none"
       id="circle47" />
    <circle
       cx="9"
       cy="9"
       r="8.5"
       fill="none"
       id="circle48" />
  </g>
  <g
     id="Ellipse_21"
     data-name="Ellipse 21"
     transform="translate(1560.051,43.587325)"
     fill="#23185b"
     stroke="#707070"
     stroke-width="1">
    <circle
       cx="9"
       cy="9"
       r="9"
       stroke="none"
       id="circle49" />
    <circle
       cx="9"
       cy="9"
       r="8.5"
       fill="none"
       id="circle50" />
  </g>
  <g
     id="Ellipse_22"
     data-name="Ellipse 22"
     transform="translate(1599.051,43.587325)"
     fill="#23185b"
     stroke="#707070"
     stroke-width="1">
    <circle
       cx="9"
       cy="9"
       r="9"
       stroke="none"
       id="circle51" />
    <circle
       cx="9"
       cy="9"
       r="8.5"
       fill="none"
       id="circle52" />
  </g>
  <g
     id="Ellipse_18"
     data-name="Ellipse 18"
     transform="translate(6.446692e-8,43.587325)"
     fill="#23185b"
     stroke="#707070"
     stroke-width="1">
    <circle
       cx="9"
       cy="9"
       r="9"
       stroke="none"
       id="circle53" />
    <circle
       cx="9"
       cy="9"
       r="8.5"
       fill="none"
       id="circle54" />
  </g>
  <g
     id="Ellipse_20"
     data-name="Ellipse 20"
     transform="translate(1521.051,43.587325)"
     fill="#23185b"
     stroke="#707070"
     stroke-width="1">
    <circle
       cx="9"
       cy="9"
       r="9"
       stroke="none"
       id="circle55" />
    <circle
       cx="9"
       cy="9"
       r="8.5"
       fill="none"
       id="circle56" />
  </g>
  <g
     id="Ellipse_19"
     data-name="Ellipse 19"
     transform="translate(84,43.587325)"
     fill="#23185b"
     stroke="#707070"
     stroke-width="1">
    <circle
       cx="9"
       cy="9"
       r="9"
       stroke="none"
       id="circle57" />
    <circle
       cx="9"
       cy="9"
       r="8.5"
       fill="none"
       id="circle58" />
  </g>
</svg>
