<svg width="1617.051" height="103.404" xmlns="http://www.w3.org/2000/svg"><path data-name="Path 212" d="M1431.59 102.186a25.654 25.654 0 0 0 16.457-8.808c2.629-2.886 4.42-6.45 6.838-9.406a46.055 46.055 0 0 1 24.308-16.61c5.272-1.766 11.71-2.987 15.029-8.238 2.813-4.624 2.674-11.192-1.143-15.216-3.131-3.25-7.409-4.63-11.169-6.146-7.02-2.597-13.768-5.964-19.13-11.292-5.81-5.168-9.07-12.272-14.021-18.157-10.041-11.475-28.95-11.112-38.16 1.352-11.298 14.745 4.689 26.73 5.63 41.241-.813 10.354-9.99 17.829-10.927 29.271-.366 13.325 13.64 23.778 26.289 22.01m-18.928-22.216c-.995-9.092 4.7-19.656 5.364-29.162-.26-12.075-9.754-25.641-1.277-36.442 6.718-9.071 20.573-10.424 29.027-2.953 5.362 5.134 9.437 12.024 15.069 17.05 7.067 7.244 16.091 13.126 24.43 18.636 3.05 1.988 3.647 4.952 2.332 8.142-1.725 3.215-7.049 5.425-10.456 7.627a105.718 105.718 0 0 0-24.198 19.464c-3.277 3.572-6.203 7.933-10.445 10.365-11.085 7.259-27.667.346-29.846-12.727" fill="#757ea0"/><path data-name="Path 213" d="M1006.515 102.207a25.654 25.654 0 0 0 16.456-8.808c2.629-2.886 4.42-6.45 6.838-9.406a46.055 46.055 0 0 1 24.308-16.61c5.272-1.766 11.71-2.987 15.029-8.238 2.813-4.624 2.674-11.192-1.143-15.216-3.131-3.25-7.409-4.63-11.169-6.146-7.02-2.597-13.768-5.964-19.13-11.292-5.81-5.168-9.07-12.272-14.021-18.157-10.041-11.475-28.95-11.112-38.16 1.352-11.298 14.745 4.689 26.73 5.63 41.241-.813 10.354-9.99 17.829-10.927 29.271-.367 13.325 13.64 23.778 26.289 22.01m-18.928-22.216c-.995-9.092 4.7-19.656 5.364-29.162-.26-12.075-9.754-25.641-1.277-36.442 6.718-9.071 20.573-10.424 29.027-2.953 5.361 5.134 9.437 12.024 15.069 17.05 7.067 7.244 16.091 13.126 24.43 18.636 3.05 1.988 3.647 4.952 2.332 8.142-1.725 3.215-7.049 5.425-10.456 7.627a105.718 105.718 0 0 0-24.198 19.464c-3.277 3.572-6.203 7.933-10.445 10.365-11.085 7.259-27.667.346-29.846-12.727" fill="#74378c"/><path data-name="Path 214" d="M574.156 103.207a25.654 25.654 0 0 0 16.456-8.808c2.629-2.886 4.42-6.45 6.838-9.406a46.055 46.055 0 0 1 24.308-16.61c5.272-1.766 11.71-2.987 15.029-8.238 2.813-4.624 2.674-11.192-1.143-15.216-3.131-3.25-7.409-4.63-11.169-6.146-7.02-2.597-13.768-5.964-19.13-11.292-5.81-5.168-9.07-12.272-14.021-18.157-10.041-11.475-28.95-11.112-38.16 1.352-11.298 14.745 4.689 26.73 5.63 41.241-.813 10.354-9.99 17.829-10.927 29.271-.367 13.325 13.64 23.778 26.289 22.01m-18.928-22.216c-.995-9.092 4.7-19.656 5.364-29.162-.26-12.075-9.754-25.641-1.277-36.442 6.718-9.071 20.573-10.424 29.027-2.953 5.362 5.134 9.437 12.024 15.07 17.05 7.066 7.244 16.09 13.126 24.429 18.636 3.05 1.988 3.647 4.952 2.332 8.142-1.725 3.215-7.049 5.425-10.456 7.627a105.718 105.718 0 0 0-24.198 19.464c-3.277 3.572-6.203 7.933-10.445 10.365-11.085 7.259-27.667.346-29.846-12.727" fill="#eb691d"/><path data-name="Path 215" d="M149.671 102.186a25.654 25.654 0 0 0 16.456-8.808c2.629-2.886 4.42-6.45 6.838-9.406a46.055 46.055 0 0 1 24.308-16.61c5.272-1.766 11.71-2.987 15.029-8.238 2.813-4.624 2.674-11.192-1.143-15.216-3.131-3.25-7.409-4.63-11.169-6.146-7.02-2.597-13.768-5.964-19.13-11.292-5.81-5.168-9.07-12.272-14.021-18.157-10.041-11.475-28.95-11.112-38.16 1.352-11.298 14.745 4.689 26.73 5.63 41.241-.813 10.354-9.99 17.829-10.927 29.271-.367 13.325 13.64 23.778 26.289 22.01m-18.928-22.216c-.995-9.092 4.7-19.656 5.364-29.162-.26-12.075-9.754-25.641-1.277-36.442 6.718-9.071 20.573-10.424 29.027-2.953 5.362 5.134 9.437 12.024 15.069 17.05 7.067 7.244 16.091 13.126 24.43 18.636 3.05 1.988 3.647 4.952 2.332 8.142-1.725 3.215-7.049 5.425-10.456 7.627a105.718 105.718 0 0 0-24.198 19.464c-3.277 3.572-6.203 7.933-10.445 10.365-11.085 7.259-27.667.346-29.846-12.727" fill="#fbc301"/><g data-name="Group 210" fill="#23185b" stroke="#707070"><g data-name="Ellipse 9" transform="translate(239 43.587)"><circle cx="9" cy="9" r="9" stroke="none"/><circle cx="9" cy="9" r="8.5" fill="none"/></g><g data-name="Ellipse 11" transform="translate(323 43.587)"><circle cx="9" cy="9" r="9" stroke="none"/><circle cx="9" cy="9" r="8.5" fill="none"/></g><g data-name="Ellipse 13" transform="translate(407 43.587)"><circle cx="9" cy="9" r="9" stroke="none"/><circle cx="9" cy="9" r="8.5" fill="none"/></g><g data-name="Ellipse 15" transform="translate(491 43.587)"><circle cx="9" cy="9" r="9" stroke="none"/><circle cx="9" cy="9" r="8.5" fill="none"/></g><g data-name="Ellipse 10" transform="translate(281 43.587)"><circle cx="9" cy="9" r="9" stroke="none"/><circle cx="9" cy="9" r="8.5" fill="none"/></g><g data-name="Ellipse 12" transform="translate(365 43.587)"><circle cx="9" cy="9" r="9" stroke="none"/><circle cx="9" cy="9" r="8.5" fill="none"/></g><g data-name="Ellipse 14" transform="translate(449 43.587)"><circle cx="9" cy="9" r="9" stroke="none"/><circle cx="9" cy="9" r="8.5" fill="none"/></g></g><g data-name="Group 211" fill="#23185b" stroke="#707070"><g data-name="Ellipse 9" transform="translate(674.693 42.587)"><circle cx="9" cy="9" r="9" stroke="none"/><circle cx="9" cy="9" r="8.5" fill="none"/></g><g data-name="Ellipse 11" transform="translate(758.693 42.587)"><circle cx="9" cy="9" r="9" stroke="none"/><circle cx="9" cy="9" r="8.5" fill="none"/></g><g data-name="Ellipse 13" transform="translate(842.693 42.587)"><circle cx="9" cy="9" r="9" stroke="none"/><circle cx="9" cy="9" r="8.5" fill="none"/></g><g data-name="Ellipse 15" transform="translate(926.693 42.587)"><circle cx="9" cy="9" r="9" stroke="none"/><circle cx="9" cy="9" r="8.5" fill="none"/></g><g data-name="Ellipse 10" transform="translate(716.693 42.587)"><circle cx="9" cy="9" r="9" stroke="none"/><circle cx="9" cy="9" r="8.5" fill="none"/></g><g data-name="Ellipse 12" transform="translate(800.693 42.587)"><circle cx="9" cy="9" r="9" stroke="none"/><circle cx="9" cy="9" r="8.5" fill="none"/></g><g data-name="Ellipse 14" transform="translate(884.693 42.587)"><circle cx="9" cy="9" r="9" stroke="none"/><circle cx="9" cy="9" r="8.5" fill="none"/></g></g><g data-name="Group 212" fill="#23185b" stroke="#707070"><g data-name="Ellipse 9" transform="translate(1107.606 42.587)"><circle cx="9" cy="9" r="9" stroke="none"/><circle cx="9" cy="9" r="8.5" fill="none"/></g><g data-name="Ellipse 11" transform="translate(1191.606 42.587)"><circle cx="9" cy="9" r="9" stroke="none"/><circle cx="9" cy="9" r="8.5" fill="none"/></g><g data-name="Ellipse 13" transform="translate(1275.606 42.587)"><circle cx="9" cy="9" r="9" stroke="none"/><circle cx="9" cy="9" r="8.5" fill="none"/></g><g data-name="Ellipse 15" transform="translate(1359.606 42.587)"><circle cx="9" cy="9" r="9" stroke="none"/><circle cx="9" cy="9" r="8.5" fill="none"/></g><g data-name="Ellipse 10" transform="translate(1149.606 42.587)"><circle cx="9" cy="9" r="9" stroke="none"/><circle cx="9" cy="9" r="8.5" fill="none"/></g><g data-name="Ellipse 12" transform="translate(1233.606 42.587)"><circle cx="9" cy="9" r="9" stroke="none"/><circle cx="9" cy="9" r="8.5" fill="none"/></g><g data-name="Ellipse 14" transform="translate(1317.606 42.587)"><circle cx="9" cy="9" r="9" stroke="none"/><circle cx="9" cy="9" r="8.5" fill="none"/></g></g><g data-name="Ellipse 17" transform="translate(42 43.587)" fill="#23185b" stroke="#707070"><circle cx="9" cy="9" r="9" stroke="none"/><circle cx="9" cy="9" r="8.5" fill="none"/></g><g data-name="Ellipse 21" transform="translate(1560.051 43.587)" fill="#23185b" stroke="#707070"><circle cx="9" cy="9" r="9" stroke="none"/><circle cx="9" cy="9" r="8.5" fill="none"/></g><g data-name="Ellipse 22" transform="translate(1599.051 43.587)" fill="#23185b" stroke="#707070"><circle cx="9" cy="9" r="9" stroke="none"/><circle cx="9" cy="9" r="8.5" fill="none"/></g><g data-name="Ellipse 18" transform="translate(0 43.587)" fill="#23185b" stroke="#707070"><circle cx="9" cy="9" r="9" stroke="none"/><circle cx="9" cy="9" r="8.5" fill="none"/></g><g data-name="Ellipse 20" transform="translate(1521.051 43.587)" fill="#23185b" stroke="#707070"><circle cx="9" cy="9" r="9" stroke="none"/><circle cx="9" cy="9" r="8.5" fill="none"/></g><g data-name="Ellipse 19" transform="translate(84 43.587)" fill="#23185b" stroke="#707070"><circle cx="9" cy="9" r="9" stroke="none"/><circle cx="9" cy="9" r="8.5" fill="none"/></g></svg>