<svg xmlns="http://www.w3.org/2000/svg" width="559.818" height="153.651"><defs><clipPath id="a"><path data-name="Rectangle 91" fill="#fff" d="M0 0h559.818v153.651H0z"/></clipPath></defs><g data-name="Group 88" clip-path="url(#a)"><path data-name="Path 106" d="M8.125 4.563H54.2v9.264H19.168V42.26h32.359v9.137H19.168v38.708H8.125Zm108.382 68.793c0 6.337.123 11.929.508 16.749h-9.9l-.64-10.027h-.245a23.1 23.1 0 0 1-20.311 11.419c-9.641 0-21.193-5.329-21.193-26.9V28.675h11.166V62.69c0 11.674 3.55 19.554 13.708 19.554a15.76 15.76 0 0 0 15.741-15.873v-37.7h11.166ZM135.035-.003H146.2v90.108h-11.165Zm43.4 11.043v17.635h16v8.51h-16v33.121c0 7.608 2.156 11.937 8.37 11.937a24.923 24.923 0 0 0 6.477-.763l.508 8.37a27.348 27.348 0 0 1-9.9 1.525c-5.2 0-9.4-1.648-12.069-4.7-3.164-3.3-4.312-8.765-4.312-16v-33.5H158v-8.51h9.518V13.959Zm40.992.377c.131 3.8-2.664 6.854-7.108 6.854a6.64 6.64 0 0 1-6.719-6.854 6.8 6.8 0 0 1 6.977-6.977 6.625 6.625 0 0 1 6.854 6.977m-12.439 17.258h11.166v61.43h-11.166Zm81.1 44.682c0 6.337.131 11.929.508 16.749h-9.9l-.631-10.027h-.263a23.119 23.119 0 0 1-20.3 11.42c-9.659 0-21.2-5.329-21.2-26.9V28.675h11.166V62.69c0 11.674 3.558 19.554 13.717 19.554 7.476 0 12.682-5.206 14.716-10.167a16.162 16.162 0 0 0 1.017-5.706v-37.7h11.166ZM306.62 45.31c0-6.354-.123-11.56-.508-16.635h9.772l.517 9.9h.377c3.418-5.837 9.141-11.3 19.291-11.3a18.174 18.174 0 0 1 17.389 12.305h.245a25.645 25.645 0 0 1 6.863-7.993 20.966 20.966 0 0 1 13.576-4.312c8.125 0 20.176 5.329 20.176 26.653v36.177H383.4V55.328c0-11.8-4.312-18.905-13.322-18.905-6.354 0-11.3 4.689-13.2 10.149a18.086 18.086 0 0 0-.894 5.583v37.95h-10.906v-36.8c0-9.772-4.321-16.881-12.823-16.881-6.977 0-12.06 5.583-13.83 11.166a15.475 15.475 0 0 0-.894 5.452v37.063h-10.912Zm131.748 14.593h-31.351v-8.248h31.351Zm13.445-54.2a159.114 159.114 0 0 1 23.48-1.77c15.864 0 27.161 3.681 34.646 10.658C517.555 21.575 522 31.47 522 45.31c0 13.953-4.33 25.373-12.323 33.253-7.993 7.993-21.193 12.305-37.81 12.305a179 179 0 0 1-20.053-1.017Zm11.043 75.647a69.645 69.645 0 0 0 11.166.631c23.6 0 36.426-13.2 36.426-36.294.123-20.185-11.3-33-34.646-33a63 63 0 0 0-12.945 1.139Zm68.714 43.547a21.743 21.743 0 0 0 10.649 3.033c8.353 0 10.938-5.329 10.868-9.317-.07-6.731-6.144-9.615-12.419-9.615h-3.638v-4.882h3.637c4.733 0 10.719-2.445 10.719-8.134 0-3.848-2.437-7.248-8.432-7.248a17.628 17.628 0 0 0-9.615 3.182l-1.7-4.733a22.86 22.86 0 0 1 12.577-3.7c9.466 0 13.752 5.618 13.752 11.464 0 4.952-2.962 9.168-8.878 11.315v.14c5.916 1.183 10.728 5.627 10.728 12.358 0 7.687-5.995 14.418-17.529 14.418a24.479 24.479 0 0 1-12.5-3.252ZM21.6 152.255a18.287 18.287 0 0 1-7.529 1.35C6.039 153.604 0 148.539 0 139.204c0-8.922 6.039-14.961 14.873-14.961a15.337 15.337 0 0 1 6.766 1.262l-.894 3A13.551 13.551 0 0 0 15 127.32c-6.679 0-11.113 4.268-11.113 11.753 0 6.977 4.014 11.455 10.947 11.455a14.751 14.751 0 0 0 6-1.183Zm22.586-9.466c0 7.564-5.241 10.859-10.184 10.859-5.53 0-9.808-4.058-9.808-10.517 0-6.845 4.479-10.859 10.149-10.859 5.872 0 9.843 4.268 9.843 10.517m-16.236.208c0 4.479 2.577 7.862 6.214 7.862 3.55 0 6.214-3.339 6.214-7.949 0-3.462-1.735-7.853-6.126-7.853s-6.3 4.058-6.3 7.941M48.9 123.174h3.725v30.01H48.9Zm12.06 20.456c.079 5.04 3.287 7.108 7.012 7.108a13.417 13.417 0 0 0 5.653-1.061l.64 2.664a16.64 16.64 0 0 1-6.8 1.262c-6.293 0-10.062-4.137-10.062-10.307s3.633-11.024 9.597-11.024c6.67 0 8.44 5.863 8.44 9.632a13.689 13.689 0 0 1-.123 1.727Zm10.894-2.656c.044-2.366-.964-6.048-5.154-6.048-3.751 0-5.408 3.471-5.706 6.048Zm22.814 11.447a13.768 13.768 0 0 1-5.881 1.183c-6.17 0-10.184-4.172-10.184-10.43 0-6.3 4.312-10.868 10.991-10.868a12.392 12.392 0 0 1 5.154 1.061l-.85 2.875a8.57 8.57 0 0 0-4.3-.982c-4.689 0-7.24 3.471-7.24 7.739 0 4.733 3.05 7.651 7.108 7.651a10.544 10.544 0 0 0 4.575-1.017Zm15.689.763-.3-2.577h-.123a7.636 7.636 0 0 1-6.258 3.041c-4.146 0-6.258-2.91-6.258-5.872 0-4.943 4.4-7.651 12.305-7.608v-.421c0-1.692-.465-4.733-4.654-4.733a10.1 10.1 0 0 0-5.32 1.525l-.85-2.454a12.74 12.74 0 0 1 6.722-1.814c6.258 0 7.774 4.268 7.774 8.37v7.643a27.777 27.777 0 0 0 .342 4.9Zm-.552-10.439c-4.058-.079-8.659.631-8.659 4.61a3.286 3.286 0 0 0 3.5 3.55 5.084 5.084 0 0 0 4.952-3.427 3.7 3.7 0 0 0 .21-1.183Zm9.615-19.571h3.725v30.01h-3.725Zm24.567 29.247a13.687 13.687 0 0 1-5.872 1.183c-6.17 0-10.184-4.172-10.184-10.43 0-6.3 4.312-10.868 10.991-10.868a12.345 12.345 0 0 1 5.145 1.061l-.833 2.875a8.634 8.634 0 0 0-4.312-.982c-4.7 0-7.231 3.471-7.231 7.739 0 4.733 3.041 7.651 7.1 7.651a10.391 10.391 0 0 0 4.558-1.017Zm8.51-25.435a2.305 2.305 0 0 1-4.61 0 2.276 2.276 0 0 1 2.331-2.331 2.213 2.213 0 0 1 2.279 2.331m-4.137 5.741h3.725v20.456h-3.725Zm10.281 20.456v-17.616h-2.884v-2.84h2.884v-.964c0-2.875.631-5.5 2.358-7.152a7.128 7.128 0 0 1 4.987-1.893 8.827 8.827 0 0 1 3.182.587l-.517 2.875a5.5 5.5 0 0 0-2.358-.465c-3.182 0-3.97 2.787-3.97 5.916v1.1h4.934v2.84h-4.934v17.617Zm13.541-9.553c.07 5.04 3.287 7.108 7 7.108a13.462 13.462 0 0 0 5.662-1.061l.631 2.664a16.557 16.557 0 0 1-6.793 1.262c-6.3 0-10.07-4.137-10.07-10.307s3.637-11.026 9.606-11.026c6.679 0 8.449 5.863 8.449 9.632a13.347 13.347 0 0 1-.131 1.727Zm10.894-2.656c.044-2.366-.973-6.048-5.154-6.048-3.76 0-5.408 3.471-5.714 6.048Zm8.221-1.858c0-2.419-.044-4.487-.167-6.389h3.252l.123 4.014h.175a6.124 6.124 0 0 1 5.653-4.47 4.029 4.029 0 0 1 1.069.123v3.515a5.4 5.4 0 0 0-1.271-.131c-2.621 0-4.487 1.99-4.987 4.777a10.99 10.99 0 0 0-.167 1.727v10.9h-3.681Zm31.964 3.672c0 7.564-5.241 10.859-10.184 10.859-5.53 0-9.816-4.058-9.816-10.517 0-6.845 4.487-10.859 10.158-10.859 5.872 0 9.843 4.268 9.843 10.517m-16.232.21c0 4.479 2.577 7.862 6.214 7.862 3.541 0 6.214-3.339 6.214-7.949 0-3.462-1.735-7.853-6.126-7.853s-6.3 4.058-6.3 7.941m20.947-19.825h3.721v30.01h-3.725Z" fill="#fff"/></g></svg>