<svg id="Group_86" data-name="Group 86" xmlns="http://www.w3.org/2000/svg" xmlns:xlink="http://www.w3.org/1999/xlink" width="598.991" height="247.854" viewBox="0 0 598.991 247.854">
  <defs>
    <clipPath id="clip-path">
      <path id="Path_60" data-name="Path 60" d="M2.821,224.365H601.812V-23.489H2.821Z" transform="translate(-2.821 23.489)" fill="none"/>
    </clipPath>
  </defs>
  <g id="Group_51" data-name="Group 51" transform="translate(0 0)" clip-path="url(#clip-path)">
    <g id="Group_37" data-name="Group 37" transform="translate(38.95 74.435)">
      <path id="Path_46" data-name="Path 46" d="M65.746,4.336A50.879,50.879,0,0,0,27.369,2.4,29.945,29.945,0,0,1-6.883,51.081,51.055,51.055,0,1,0,65.746,4.336" transform="translate(6.883 0.454)" fill="#e42c6a"/>
    </g>
    <g id="Group_38" data-name="Group 38" transform="translate(25.634 75.524)">
      <path id="Path_47" data-name="Path 47" d="M39.011,1.041C38.377.63,37.723.25,37.069-.109A17.9,17.9,0,0,1,35.339,4.1,18.592,18.592,0,0,1,9.993,11.087,18.761,18.761,0,0,1,3.556,5.009,26.9,26.9,0,0,0,.58,8.681a27.694,27.694,0,1,0,38.43-7.64" transform="translate(4.084 0.109)" fill="#ed7c9a"/>
    </g>
    <g id="Group_39" data-name="Group 39" transform="translate(30.31 51.964)">
      <path id="Path_48" data-name="Path 48" d="M33.023,21.328A18.58,18.58,0,1,0-.49,26.446a27.7,27.7,0,0,1,33.513-5.118" transform="translate(3.457 2.233)" fill="#e74e7d"/>
    </g>
    <g id="Group_40" data-name="Group 40" transform="translate(33.286 72.037)">
      <path id="Path_49" data-name="Path 49" d="M28.761,6.97a17.384,17.384,0,0,0,1.731-4.21,27.692,27.692,0,0,0-33.5,5.107,18.564,18.564,0,0,0,6.426,6.088A18.6,18.6,0,0,0,28.761,6.97" transform="translate(3.011 0.73)" fill="#e42c6a"/>
    </g>
    <g id="Group_41" data-name="Group 41" transform="translate(1.586 61.274)">
      <path id="Path_50" data-name="Path 50" d="M16.221,1.748A11.529,11.529,0,1,1,.235,4.946a11.546,11.546,0,0,1,15.986-3.2" transform="translate(1.698 0.183)" fill="#e96188"/>
    </g>
    <g id="Group_42" data-name="Group 42" transform="translate(14.028 31.836)">
      <path id="Path_51" data-name="Path 51" d="M14.153,1.525A10.06,10.06,0,1,1,.214,4.342,10.06,10.06,0,0,1,14.153,1.525" transform="translate(1.482 0.16)" fill="#e42c6a"/>
    </g>
    <g id="Group_43" data-name="Group 43" transform="translate(147.693 77.28)">
      <path id="Path_52" data-name="Path 52" d="M28.742,73.177c8.178,0,11.713-3.946,11.713-12.694,0-7.766-2.691-12.261-11.713-12.261H17.736V73.177Zm-.57-41.617c7.481,0,10.024-3.946,10.024-11.28,0-7.2-3.113-10.573-10.3-10.573H17.736V31.561ZM-3.009-7.661H33.817C49.476-7.661,59.49.105,59.49,17.453c0,10.731-2.828,16.8-12.694,20.745,9.18,2.121,16.366,9.317,16.366,23.425,0,19.88-9.877,28.765-30.748,28.765H-3.009Z" transform="translate(3.009 7.661)" fill="#fff"/>
    </g>
    <g id="Group_44" data-name="Group 44" transform="translate(218.388 70.932)">
      <path id="Path_53" data-name="Path 53" d="M5.617,10.994a12,12,0,1,1,12,11.85,11.865,11.865,0,0,1-12-11.85M7.6,46.122-.588,44.138V31.159H27.628V103.25H7.6Z" transform="translate(0.588 1.151)" fill="#fff"/>
    </g>
    <g id="Group_45" data-name="Group 45" transform="translate(259.738 101.415)">
      <path id="Path_54" data-name="Path 54" d="M0,1.652H16.208l1.7,6.912C23.267,3.5,29.2-.173,38.219-.173,50.5-.173,56.98,5.05,56.98,19.707V73.743H36.963V24.223c0-6.912-2.554-8.463-6.637-8.463-4.369,0-7.059,1.551-10.436,4.242V73.743H0Z" transform="translate(0 0.173)" fill="#fff"/>
    </g>
    <g id="Group_46" data-name="Group 46" transform="translate(325.754 101.417)">
      <path id="Path_55" data-name="Path 55" d="M37.424,33.967c0-19.046-2.258-22.708-10.024-22.708-7.893,0-9.866,4.084-9.866,23.278,0,18.339,2.11,22.993,10.014,22.993,7.756,0,9.877-5.086,9.877-23.562m-41.342,0C-3.918,6.869,7.52-3.556,27.4-3.556c19.9,0,31.318,10.858,31.318,38.092,0,27.076-11.417,37.67-31.318,37.67-19.88,0-31.318-11.164-31.318-38.24" transform="translate(3.918 3.556)" fill="#fff"/>
    </g>
    <g id="Group_47" data-name="Group 47" transform="translate(392.084 101.41)">
      <path id="Path_56" data-name="Path 56" d="M0,62.575,6.342,47.485a31.7,31.7,0,0,0,16.925,5.36c6.637,0,9.739-1.984,9.739-6.342,0-5.086-3.1-6.215-12.272-8.906-10.573-3.1-17.21-8.737-17.21-22.286C3.524.93,12.694-6.551,28.058-6.551c10.024,0,15.955,1.688,22.17,4.516L45.278,12.917a32.221,32.221,0,0,0-15.1-3.535c-4.358,0-7.186,1.709-7.186,5.656,0,4.664,2.121,5.35,10.151,7.608C44.3,25.748,52.9,30.138,52.9,45.365c0,15.1-8.041,23.847-26.39,23.847C14.952,69.212,5.645,65.972,0,62.575" transform="translate(0 6.551)" fill="#fff"/>
    </g>
    <g id="Group_48" data-name="Group 48" transform="translate(448.944 82.231)">
      <path id="Path_57" data-name="Path 57" d="M0,19.018H7.334V1.4l19.88-3.387V19.018H40.477v15.11H27.213V70.237c0,6.2,1.847,7.608,5.371,7.608a16.077,16.077,0,0,0,6.2-1.551l2.67,13.549a30.251,30.251,0,0,1-13.812,3.113c-12.282,0-20.312-4.242-20.312-18.065V34.128H0Z" transform="translate(0 1.991)" fill="#fff"/>
    </g>
    <g id="Group_49" data-name="Group 49" transform="translate(494.509 101.417)">
      <path id="Path_58" data-name="Path 58" d="M37.415,33.967c0-19.046-2.258-22.708-10.014-22.708-7.893,0-9.877,4.084-9.877,23.278,0,18.339,2.121,22.993,10.014,22.993,7.756,0,9.877-5.086,9.877-23.562m-41.332,0C-3.917,6.869,7.5-3.556,27.4-3.556,47.27-3.556,58.709,7.3,58.709,34.536c0,27.076-11.438,37.67-31.308,37.67-19.9,0-31.318-11.164-31.318-38.24" transform="translate(3.917 3.556)" fill="#fff"/>
    </g>
    <g id="Group_50" data-name="Group 50" transform="translate(556.256 100.049)">
      <path id="Path_59" data-name="Path 59" d="M7.47,8.2c1.287,0,1.72-.58,1.72-1.825,0-1.14-.475-1.678-1.72-1.678h-1.4V8.2ZM4.293,3.2H7.47c2.3,0,3.545,1.1,3.545,3.081A2.637,2.637,0,0,1,9,9.219c.623.19,1.045.739,1.393,1.836l1.055,3.155H9.538L8.525,11.055c-.39-1.213-.823-1.488-1.53-1.488H6.066V14.21H4.293Zm9.729,5.614C14.022,3.479,11.617.63,7.47.63,3.28.63.906,3.479.906,8.818c0,5.308,2.374,8.209,6.563,8.209,4.147,0,6.553-2.9,6.553-8.209m-14.8,0c0-6.088,3.4-9.676,8.252-9.676,4.875,0,8.231,3.588,8.231,9.676,0,6.173-3.356,9.687-8.231,9.687-4.854,0-8.252-3.514-8.252-9.687" transform="translate(0.782 0.858)" fill="#fff"/>
    </g>
  </g>
  <g id="Group_52" data-name="Group 52" transform="translate(0 0)" clip-path="url(#clip-path)">
    <g id="Group" transform="translate(145.392 190.811)">
      <text id="Alendronic_acid" data-name="Alendronic acid" transform="translate(0 33)" fill="#fff" font-size="46" font-family="HelveticaNeueLTPro-Cn, Helvetica Neue LT Pro"><tspan x="0" y="0">Alendronic acid</tspan></text>
      <text id="_70_mg" data-name=" 70 mg" transform="translate(282.313 33)" fill="#fff" font-size="46" font-family="HelveticaNeueLTPro-BdCn, Helvetica Neue LT Pro"><tspan x="0" y="0" xml:space="preserve"> 70 mg</tspan></text>
      <text id="Effervescent_T" data-name="Effervescent T" transform="translate(0 94.297)" fill="#fff" font-size="47" font-family="HelveticaNeueLTPro-Cn, Helvetica Neue LT Pro"><tspan x="0" y="0">Effervescent T</tspan></text>
      <text id="ablets" transform="translate(259.113 94.297)" fill="#fff" font-size="48" font-family="HelveticaNeueLTPro-Cn, Helvetica Neue LT Pro"><tspan x="0" y="0">ablets</tspan></text>
    </g>
  </g>
  <text id="Buffered" transform="translate(146.087 46.602)" fill="#fff" font-size="47" font-family="HelveticaNeueLTPro-Cn, Helvetica Neue LT Pro"><tspan x="0" y="0">Buffered</tspan></text>
</svg>
